<svg id="Layer_2" data-name="Layer 2" xmlns="http://www.w3.org/2000/svg" viewBox="0 0 940.86 823.75"><defs><style>.cls-1{fill:#f5c886;}.cls-2{fill:#ee97a0;}.cls-3{fill:#92d9f8;}</style></defs><path class="cls-1" d="M520.67,811.17C476,751.6,405.76,641.55,372.51,486.81c-41.39-192.61-3.13-350.46,20-424.48q34,170.19,68.08,340.38A575,575,0,0,1,760.94,230.52C719.62,257.6,594.33,347.28,536.69,518.84,493.28,648.07,509.71,759.82,520.67,811.17Z" transform="translate(-25.03 -62.33)"/><circle class="cls-1" cx="507.66" cy="152.17" r="80.09"/><path class="cls-2" d="M314,886.08c-48.27-30.86-128.42-91.15-193.09-193.35C40.36,565.52,27.32,442.07,25,382.8L163.57,609a447.1,447.1,0,0,1,66.86-108.81A455.49,455.49,0,0,1,339,405.48C315.72,435.91,247.19,533.59,249.59,672,251.4,776.33,292.55,852.15,314,886.08Z" transform="translate(-25.03 -62.33)"/><ellipse class="cls-2" cx="167.42" cy="454.71" rx="62.48" ry="61.14" transform="translate(-170.07 22.03) rotate(-19.94)"/><path class="cls-3" d="M676.34,839.47A575,575,0,0,0,860.23,676.08c79.8-110,99.64-220.28,105.66-273.44L828.07,598.46A396.72,396.72,0,0,0,686.54,406.1c18.53,28.61,72.6,120.11,61.16,244.44C739.08,744.18,697.56,810.13,676.34,839.47Z" transform="translate(-25.03 -62.33)"/><circle class="cls-3" cx="810.01" cy="397.27" r="55.25"/></svg>